<?xml version="1.0" standalone="no"?><!DOCTYPE svg PUBLIC "-//W3C//DTD SVG 1.1//EN" "http://www.w3.org/Graphics/SVG/1.1/DTD/svg11.dtd"><svg xmlns:xlink="http://www.w3.org/1999/xlink" version="1.1" class="highcharts-root" style="font-family:&quot;Lucida Grande&quot;, &quot;Lucida Sans Unicode&quot;, Arial, Helvetica, sans-serif;font-size:12px;" xmlns="http://www.w3.org/2000/svg" width="600" height="445" viewBox="0 0 600 445"><desc>Created with Highcharts 8.2.0</desc><defs><linearGradient x1="0" y1="0" x2="0" y2="400" gradientUnits="userSpaceOnUse" id="highcharts-t7eeob7-39"><stop offset="0" stop-color="rgb(96, 96, 96)" stop-opacity="1"></stop><stop offset="1" stop-color="rgb(16, 16, 16)" stop-opacity="1"></stop></linearGradient><clipPath id="highcharts-t7eeob7-40-"><rect x="0" y="0" width="400" height="373" fill="none"></rect></clipPath></defs><rect fill="url(#highcharts-t7eeob7-39)" class="highcharts-background" x="0" y="0" width="600" height="445" rx="0" ry="0"></rect><rect fill="none" class="highcharts-plot-background" x="70" y="47" width="400" height="373"></rect><g class="highcharts-plot-lines-0" data-z-index="0"><path fill="none" class="highcharts-plot-line " stroke="#808080" stroke-width="1"></path></g><g class="highcharts-grid highcharts-xaxis-grid" data-z-index="1"><path fill="none" data-z-index="1" class="highcharts-grid-line" d="M 129.5 47 L 129.5 420" opacity="1"></path><path fill="none" data-z-index="1" class="highcharts-grid-line" d="M 239.5 47 L 239.5 420" opacity="1"></path><path fill="none" data-z-index="1" class="highcharts-grid-line" d="M 349.5 47 L 349.5 420" opacity="1"></path><path fill="none" data-z-index="1" class="highcharts-grid-line" d="M 460.5 47 L 460.5 420" opacity="1"></path></g><g class="highcharts-grid highcharts-yaxis-grid" data-z-index="1"><path fill="none" stroke="rgb(255, 255, 255)" stroke-opacity=" .1" stroke-width="1" data-z-index="1" class="highcharts-grid-line" d="M 70 420.5 L 470 420.5" opacity="1"></path><path fill="none" stroke="rgb(255, 255, 255)" stroke-opacity=" .1" stroke-width="1" data-z-index="1" class="highcharts-grid-line" d="M 70 345.5 L 470 345.5" opacity="1"></path><path fill="none" stroke="rgb(255, 255, 255)" stroke-opacity=" .1" stroke-width="1" data-z-index="1" class="highcharts-grid-line" d="M 70 271.5 L 470 271.5" opacity="1"></path><path fill="none" stroke="rgb(255, 255, 255)" stroke-opacity=" .1" stroke-width="1" data-z-index="1" class="highcharts-grid-line" d="M 70 196.5 L 470 196.5" opacity="1"></path><path fill="none" stroke="rgb(255, 255, 255)" stroke-opacity=" .1" stroke-width="1" data-z-index="1" class="highcharts-grid-line" d="M 70 122.5 L 470 122.5" opacity="1"></path><path fill="none" stroke="rgb(255, 255, 255)" stroke-opacity=" .1" stroke-width="1" data-z-index="1" class="highcharts-grid-line" d="M 70 46.5 L 470 46.5" opacity="1"></path></g><rect fill="none" class="highcharts-plot-border" data-z-index="1" x="70" y="47" width="400" height="373"></rect><g class="highcharts-axis highcharts-xaxis" data-z-index="2"><path fill="none" class="highcharts-tick" stroke="#999" stroke-width="1" d="M 129.5 420 L 129.5 430" opacity="1"></path><path fill="none" class="highcharts-tick" stroke="#999" stroke-width="1" d="M 239.5 420 L 239.5 430" opacity="1"></path><path fill="none" class="highcharts-tick" stroke="#999" stroke-width="1" d="M 349.5 420 L 349.5 430" opacity="1"></path><path fill="none" class="highcharts-tick" stroke="#999" stroke-width="1" d="M 460.5 420 L 460.5 430" opacity="1"></path><path fill="none" class="highcharts-axis-line" stroke="#999" stroke-width="1" data-z-index="7" d="M 70 420.5 L 470 420.5"></path></g><g class="highcharts-axis highcharts-yaxis" data-z-index="2"><text x="25.65625" data-z-index="7" text-anchor="middle" transform="translate(0,0) rotate(270 25.65625 233.5)" class="highcharts-axis-title" style="color:#AAA;font:bold 12px Lucida Grande, Lucida Sans Unicode, Verdana, Arial, Helvetica, sans-serif;fill:#AAA;" y="233.5"><tspan>Рейтинг</tspan></text><path fill="none" class="highcharts-axis-line" data-z-index="7" d="M 70 47 L 70 420"></path></g><g class="highcharts-series-group" data-z-index="3"><g class="highcharts-series highcharts-series-0 highcharts-line-series" data-z-index="0.1" opacity="1" transform="translate(70,47) scale(1 1)" clip-path="url(#highcharts-t7eeob7-40-)"><path fill="none" d="M 3.921568627451 309.59000000000003 L 10.246679316888 320.6681 L 16.571790006325 325.629 L 48.19734345351 316.45320000000004 L 54.522454142948 322.45849999999996 L 67.172675521822 307.2401 L 73.497786211259 293.62559999999996 L 79.822896900696 284.00219999999996 L 98.798228969007 266.06090000000006 L 105.12333965844 254.1995 L 117.77356103732 210.55849999999995 L 124.09867172676 195.63849999999996 L 187.34977862113 205.2619 L 193.67488931056 205.2619 L 206.32511068944 205.2619 L 212.65022137887 223.2032 L 218.97533206831 223.2032 L 225.30044275775 215.6313 L 231.62555344719 185.97780000000006 L 237.95066413662 188.77530000000004 L 244.27577482606 170.90859999999998 L 339.15243516762 176.54090000000005 L 345.47754585705 185.19450000000003 L 351.80265654649 155.35450000000003 L 358.12776723593 148.0437 L 364.45287792536 129.58020000000005 L 370.7779886148 114.92130000000003 L 377.10309930424 99.51640000000003 L 383.42820999367 78.32999999999998 L 396.07843137255 36.66590000000002" class="highcharts-graph" data-z-index="1" stroke="gold" stroke-width="2" stroke-linejoin="round" stroke-linecap="round"></path></g><g class="highcharts-markers highcharts-series-0 highcharts-line-series" data-z-index="0.1" opacity="1" transform="translate(70,47) scale(1 1)" clip-path="none"></g></g><text x="280" text-anchor="middle" class="highcharts-title" data-z-index="4" style="color:#FFF;font-size:18px;font:16px Lucida Grande, Lucida Sans Unicode, Verdana, Arial, Helvetica, sans-serif;fill:#FFF;" y="24"><tspan>Тодышев Сеpгей Владимиpович</tspan></text><text x="280" text-anchor="middle" class="highcharts-subtitle" data-z-index="4" style="color:#DDD;font:12px Lucida Grande, Lucida Sans Unicode, Verdana, Arial, Helvetica, sans-serif;fill:#DDD;" y="46"></text><text x="10" text-anchor="start" class="highcharts-caption" data-z-index="4" style="color:#666666;fill:#666666;" y="442"></text><g class="highcharts-axis-labels highcharts-xaxis-labels" data-z-index="7"><text x="240.18162103551" style="color:#999;cursor:default;font-size:11px;font-weight:bold;fill:#999;" text-anchor="middle" transform="translate(0,0)" y="439" opacity="1"><tspan>Янв '20</tspan></text><text x="129.94397759104" style="color:#999;cursor:default;font-size:11px;font-weight:bold;fill:#999;" text-anchor="middle" transform="translate(0,0)" y="439" opacity="1"><tspan>Сен '19</tspan></text><text x="349.51567723864" style="color:#999;cursor:default;font-size:11px;font-weight:bold;fill:#999;" text-anchor="middle" transform="translate(0,0)" y="439" opacity="1"><tspan>Май '20</tspan></text><text x="460.65690792446" style="color:#999;cursor:default;font-size:11px;font-weight:bold;fill:#999;" text-anchor="middle" transform="translate(0,0)" y="439" opacity="1"><tspan>Сен '20</tspan></text></g><g class="highcharts-axis-labels highcharts-yaxis-labels" data-z-index="7"><text x="55" style="color:#999;cursor:default;font-size:11px;font-weight:bold;fill:#999;" text-anchor="end" transform="translate(0,0)" y="424" opacity="1">160</text><text x="55" style="color:#999;cursor:default;font-size:11px;font-weight:bold;fill:#999;" text-anchor="end" transform="translate(0,0)" y="349" opacity="1">180</text><text x="55" style="color:#999;cursor:default;font-size:11px;font-weight:bold;fill:#999;" text-anchor="end" transform="translate(0,0)" y="274" opacity="1">200</text><text x="55" style="color:#999;cursor:default;font-size:11px;font-weight:bold;fill:#999;" text-anchor="end" transform="translate(0,0)" y="200" opacity="1">220</text><text x="55" style="color:#999;cursor:default;font-size:11px;font-weight:bold;fill:#999;" text-anchor="end" transform="translate(0,0)" y="125" opacity="1">240</text><text x="55" style="color:#999;cursor:default;font-size:11px;font-weight:bold;fill:#999;" text-anchor="end" transform="translate(0,0)" y="51" opacity="1">260</text></g><text x="590" class="highcharts-credits" text-anchor="end" data-z-index="8" style="cursor:pointer;color:#999999;font-size:9px;fill:#999999;" y="440">Highcharts.com</text></svg>