<?xml version="1.0" standalone="no"?><!DOCTYPE svg PUBLIC "-//W3C//DTD SVG 1.1//EN" "http://www.w3.org/Graphics/SVG/1.1/DTD/svg11.dtd"><svg xmlns:xlink="http://www.w3.org/1999/xlink" version="1.1" class="highcharts-root" style="font-family:&quot;Lucida Grande&quot;, &quot;Lucida Sans Unicode&quot;, Arial, Helvetica, sans-serif;font-size:12px;" xmlns="http://www.w3.org/2000/svg" width="600" height="445" viewBox="0 0 600 445"><desc>Created with Highcharts 8.0.4</desc><defs><linearGradient x1="0" y1="0" x2="0" y2="400" gradientUnits="userSpaceOnUse" id="highcharts-fwpivay-39"><stop offset="0" stop-color="rgb(96, 96, 96)" stop-opacity="1"></stop><stop offset="1" stop-color="rgb(16, 16, 16)" stop-opacity="1"></stop></linearGradient><clipPath id="highcharts-fwpivay-40-"><rect x="0" y="0" width="400" height="373" fill="none"></rect></clipPath></defs><rect fill="url(#highcharts-fwpivay-39)" class="highcharts-background" x="0" y="0" width="600" height="445" rx="0" ry="0"></rect><rect fill="none" class="highcharts-plot-background" x="70" y="47" width="400" height="373"></rect><g class="highcharts-plot-lines-0" data-z-index="0"><path fill="none" class="highcharts-plot-line " stroke="#808080" stroke-width="1"></path></g><g class="highcharts-grid highcharts-xaxis-grid" data-z-index="1"><path fill="none" data-z-index="1" class="highcharts-grid-line" d="M 149.5 47 L 149.5 420" opacity="1"></path><path fill="none" data-z-index="1" class="highcharts-grid-line" d="M 268.5 47 L 268.5 420" opacity="1"></path><path fill="none" data-z-index="1" class="highcharts-grid-line" d="M 386.5 47 L 386.5 420" opacity="1"></path></g><g class="highcharts-grid highcharts-yaxis-grid" data-z-index="1"><path fill="none" stroke="rgb(255, 255, 255)" stroke-opacity=" .1" stroke-width="1" data-z-index="1" class="highcharts-grid-line" d="M 70 420.5 L 470 420.5" opacity="1"></path><path fill="none" stroke="rgb(255, 255, 255)" stroke-opacity=" .1" stroke-width="1" data-z-index="1" class="highcharts-grid-line" d="M 70 345.5 L 470 345.5" opacity="1"></path><path fill="none" stroke="rgb(255, 255, 255)" stroke-opacity=" .1" stroke-width="1" data-z-index="1" class="highcharts-grid-line" d="M 70 271.5 L 470 271.5" opacity="1"></path><path fill="none" stroke="rgb(255, 255, 255)" stroke-opacity=" .1" stroke-width="1" data-z-index="1" class="highcharts-grid-line" d="M 70 196.5 L 470 196.5" opacity="1"></path><path fill="none" stroke="rgb(255, 255, 255)" stroke-opacity=" .1" stroke-width="1" data-z-index="1" class="highcharts-grid-line" d="M 70 122.5 L 470 122.5" opacity="1"></path><path fill="none" stroke="rgb(255, 255, 255)" stroke-opacity=" .1" stroke-width="1" data-z-index="1" class="highcharts-grid-line" d="M 70 46.5 L 470 46.5" opacity="1"></path></g><rect fill="none" class="highcharts-plot-border" data-z-index="1" x="70" y="47" width="400" height="373"></rect><g class="highcharts-axis highcharts-xaxis" data-z-index="2"><path fill="none" class="highcharts-tick" stroke="#999" stroke-width="1" d="M 149.5 420 L 149.5 430" opacity="1"></path><path fill="none" class="highcharts-tick" stroke="#999" stroke-width="1" d="M 268.5 420 L 268.5 430" opacity="1"></path><path fill="none" class="highcharts-tick" stroke="#999" stroke-width="1" d="M 386.5 420 L 386.5 430" opacity="1"></path><path fill="none" class="highcharts-axis-line" stroke="#999" stroke-width="1" data-z-index="7" d="M 70 420.5 L 470 420.5"></path></g><g class="highcharts-axis highcharts-yaxis" data-z-index="2"><text x="25.65625" data-z-index="7" text-anchor="middle" transform="translate(0,0) rotate(270 25.65625 233.5)" class="highcharts-axis-title" style="color:#AAA;font:bold 12px Lucida Grande, Lucida Sans Unicode, Verdana, Arial, Helvetica, sans-serif;fill:#AAA;" y="233.5"><tspan>Рейтинг</tspan></text><path fill="none" class="highcharts-axis-line" data-z-index="7" d="M 70 47 L 70 420"></path></g><g class="highcharts-series-group" data-z-index="3"><g data-z-index="0.1" class="highcharts-series highcharts-series-0 highcharts-line-series" transform="translate(70,47) scale(1 1)" clip-path="url(#highcharts-fwpivay-40-)"><path fill="none" d="M 3.921568627451 340.6236 L 10.682893847194 322.45104000000003 L 30.966869506423 320.36224 L 37.728194726166 259.22008 L 44.489519945909 253.25208000000003 L 71.534820824882 210.99864000000002 L 85.057471264368 189.87192 L 105.3414469236 181.93448 L 132.38674780257 147.17087999999998 L 139.14807302231 143.232 L 145.90939824206 152.09448 L 152.6707234618 156.03336 L 186.47734956051 148.72256000000002 L 193.23867478026 153.52679999999998 L 206.76132521974 141.35208 L 213.52265043949 130.49031999999997 L 220.28397565923 122.76175999999995 L 240.56795131846 108.40872000000002 L 247.3292765382 98.9196 L 260.85192697769 64.00679999999994 L 267.61325219743 52.07079999999996 L 335.22650439486 59.76952 L 341.9878296146 59.76952 L 355.51048005409 59.76952 L 362.27180527383 74.12256000000002 L 369.03313049358 74.12256000000002 L 375.79445571332 68.06504000000001 L 382.55578093306 44.34224000000006 L 389.31710615281 46.58024000000006 L 396.07843137255 32.28688" class="highcharts-graph" data-z-index="1" stroke="gold" stroke-width="2" stroke-linejoin="round" stroke-linecap="round"></path></g><g data-z-index="0.1" class="highcharts-markers highcharts-series-0 highcharts-line-series" transform="translate(70,47) scale(1 1)" clip-path="none"></g></g><text x="280" text-anchor="middle" class="highcharts-title" data-z-index="4" style="color:#FFF;font-size:18px;font:16px Lucida Grande, Lucida Sans Unicode, Verdana, Arial, Helvetica, sans-serif;fill:#FFF;" y="24"><tspan>Тодышев Сеpгей Владимиpович</tspan></text><text x="280" text-anchor="middle" class="highcharts-subtitle" data-z-index="4" style="color:#DDD;font:12px Lucida Grande, Lucida Sans Unicode, Verdana, Arial, Helvetica, sans-serif;fill:#DDD;" y="46"></text><text x="10" text-anchor="start" class="highcharts-caption" data-z-index="4" style="color:#666666;fill:#666666;" y="442"></text><g class="highcharts-axis-labels highcharts-xaxis-labels" data-z-index="7"><text x="386.87433594127" style="color:#999;cursor:default;font-size:11px;font-weight:bold;fill:#999;" text-anchor="middle" transform="translate(0,0)" y="439" opacity="1"><tspan>Янв '20</tspan></text><text x="150.22795325027" style="color:#999;cursor:default;font-size:11px;font-weight:bold;fill:#999;" text-anchor="middle" transform="translate(0,0)" y="439" opacity="1"><tspan>Май '19</tspan></text><text x="269.03409639718" style="color:#999;cursor:default;font-size:11px;font-weight:bold;fill:#999;" text-anchor="middle" transform="translate(0,0)" y="439" opacity="1"><tspan>Сен '19</tspan></text></g><g class="highcharts-axis-labels highcharts-yaxis-labels" data-z-index="7"><text x="55" style="color:#999;cursor:default;font-size:11px;font-weight:bold;fill:#999;" text-anchor="end" transform="translate(0,0)" y="424" opacity="1">100</text><text x="55" style="color:#999;cursor:default;font-size:11px;font-weight:bold;fill:#999;" text-anchor="end" transform="translate(0,0)" y="349" opacity="1">125</text><text x="55" style="color:#999;cursor:default;font-size:11px;font-weight:bold;fill:#999;" text-anchor="end" transform="translate(0,0)" y="274" opacity="1">150</text><text x="55" style="color:#999;cursor:default;font-size:11px;font-weight:bold;fill:#999;" text-anchor="end" transform="translate(0,0)" y="200" opacity="1">175</text><text x="55" style="color:#999;cursor:default;font-size:11px;font-weight:bold;fill:#999;" text-anchor="end" transform="translate(0,0)" y="125" opacity="1">200</text><text x="55" style="color:#999;cursor:default;font-size:11px;font-weight:bold;fill:#999;" text-anchor="end" transform="translate(0,0)" y="51" opacity="1">225</text></g><text x="590" class="highcharts-credits" text-anchor="end" data-z-index="8" style="cursor:pointer;color:#999999;font-size:9px;fill:#999999;" y="440">Highcharts.com</text></svg>